 ***THIS PACK CONTAINS ONLY JAMES BOND MOVIES WITH SEAN CONNERY ***


   General
      Complete name : Dr.No.1962.BRRip.H264.AAC.5.1ch.Gopo.mp4
      Format : MPEG-4
      Format profile : Base Media
      Codec ID : isom
      File size : 1.80 GiB
      Duration : 1h 49mn
      Overall bit rate : 2 346 Kbps
      Encoded date : UTC 2010-02-15 01:24:56
      Tagged date : UTC 2010-02-15 01:24:56
   Video #1
      ID : 1
      Format : AVC
      Format/Info : Advanced Video Codec
      Format profile : High@L4.1
      Format settings, CABAC : Yes
      Format settings, ReFrames : 6 frames
      Codec ID : avc1
      Codec ID/Info : Advanced Video Coding
      Duration : 1h 49mn
      Bit rate mode : Variable
      Bit rate : 2 030 Kbps
      Maximum bit rate : 7 920 Kbps
      Width : 1 200 pixels
      Height : 720 pixels
      Display aspect ratio : 1.667
      Frame rate mode : Constant
      Frame rate : 23.976 fps
      Resolution : 24 bits
      Colorimetry : 4:2:0
      Scan type : Progressive
      Bits/(Pixel*Frame) : 0.098
      Stream size : 1.56 GiB (87%)
      Writing library : x264 core 84 r1416 fcf70c2
      Encoding settings : cabac=1 / ref=6 / deblock=1:-3:-1 / analyse=0x3:0x133 / me=umh / subme=7 / psy=1 / psy_rd=1.0:0.1 / mixed_ref=1 / me_range=32 / chroma_me=1 / trellis=2 / 8x8dct=1 / cqm=0 / deadzone=21,11 / fast_pskip=0 / chroma_qp_offset=-3 / threads=2 / sliced_threads=0 / nr=0 / decimate=1 / mbaff=0 / constrained_intra=0 / bframes=6 / b_pyramid=2 / b_adapt=2 / b_bias=0 / direct=1 / wpredb=1 / wpredp=2 / keyint=250 / keyint_min=25 / scenecut=40 / intra_refresh=0 / rc_lookahead=40 / rc=2pass / mbtree=1 / bitrate=2030 / ratetol=1.0 / qcomp=0.60 / qpmin=10 / qpmax=51 / qpstep=4 / cplxblur=20.0 / qblur=0.5 / vbv_maxrate=40000 / vbv_bufsize=40000 / ip_ratio=1.40 / aq=1:1.00
      Encoded date : UTC 2010-02-13 21:40:46
      Tagged date : UTC 2010-02-15 01:27:48
   Audio #2
      ID : 2
      Format : AAC
      Format/Info : Advanced Audio Codec
      Format version : Version 4
      Format profile : LC
      Format settings, SBR : No
      Codec ID : 40
      Duration : 1h 49mn
      Bit rate mode : Variable
      Bit rate : 312 Kbps
      Maximum bit rate : 398 Kbps
      Channel(s) : 6 channels
      Channel positions : Front: L C R, Rear: L R, LFE
      Sampling rate : 48.0 KHz
      Resolution : 16 bits
      Stream size : 245 MiB (13%)
      Encoded date : UTC 2010-02-15 01:27:16
      Tagged date : UTC 2010-02-15 01:27:48	
	Sample : YES
	Subtitle : English,Romanian

PLOT
James Bond's investigation of a missing colleague in Jamaica leads him to the island of the mysterious Dr. No and a scheme to end the US space program.
Director: Terence Young
CASTING 
     
	Sean Connery	... 	James Bond
	Ursula Andress	... 	Honeychile 'Honey' Ryder
	Joseph Wiseman	... 	Dr. Julius No
	Jack Lord	... 	Felix Leiter
	Bernard Lee	... 	M
	Anthony Dawson	... 	Professor R.J. Dent
	Zena Marshall	... 	Miss Taro
	John Kitzmiller	... 	Quarrel (as John Kitzmuller)
	Eunice Gayson	... 	Sylvia Trench
	Lois Maxwell	... 	Miss Moneypenny
	Peter Burton	... 	Major Boothroyd
	Yvonne Shima	... 	Sister Lily
	Michel Mok	... 	Sister Rose
	Marguerite LeWars	... 	Annabelle Chung - Photographer (also as Marguerite Le Wars) (as Marguerite Lewars)
	William Foster-Davis	... 	Superintendent

SOURCE: Dr.No.1962.PROPER.720p.BluRay. x264-Japhson.mkv

----------

General
      Complete name : From.Russia.With.Love.1963.BRRip.H264.AAC.5.1ch.Gopo.mp4
      Format : MPEG-4
      Format profile : Base Media
      Codec ID : isom
      File size : 1.80 GiB
      Duration : 1h 55mn
      Overall bit rate : 2 243 Kbps
      Encoded date : UTC 2010-02-15 22:54:30
      Tagged date : UTC 2010-02-15 22:54:30
   Video #1
      ID : 1
      Format : AVC
      Format/Info : Advanced Video Codec
      Format profile : High@L4.1
      Format settings, CABAC : Yes
      Format settings, ReFrames : 6 frames
      Codec ID : avc1
      Codec ID/Info : Advanced Video Coding
      Duration : 1h 55mn
      Bit rate mode : Variable
      Bit rate : 1 937 Kbps
      Maximum bit rate : 8 845 Kbps
      Width : 1 200 pixels
      Height : 720 pixels
      Display aspect ratio : 1.667
      Frame rate mode : Constant
      Frame rate : 23.976 fps
      Resolution : 24 bits
      Colorimetry : 4:2:0
      Scan type : Progressive
      Bits/(Pixel*Frame) : 0.094
      Stream size : 1.56 GiB (86%)
      Writing library : x264 core 84 r1416 fcf70c2
      Encoding settings : cabac=1 / ref=6 / deblock=1:-3:-1 / analyse=0x3:0x133 / me=umh / subme=7 / psy=1 / psy_rd=1.0:0.1 / mixed_ref=1 / me_range=32 / chroma_me=1 / trellis=2 / 8x8dct=1 / cqm=0 / deadzone=21,11 / fast_pskip=0 / chroma_qp_offset=-3 / threads=2 / sliced_threads=0 / nr=0 / decimate=1 / mbaff=0 / constrained_intra=0 / bframes=6 / b_pyramid=2 / b_adapt=2 / b_bias=0 / direct=1 / wpredb=1 / wpredp=2 / keyint=250 / keyint_min=25 / scenecut=40 / intra_refresh=0 / rc_lookahead=40 / rc=2pass / mbtree=1 / bitrate=1937 / ratetol=1.0 / qcomp=0.60 / qpmin=10 / qpmax=51 / qpstep=4 / cplxblur=20.0 / qblur=0.5 / vbv_maxrate=40000 / vbv_bufsize=40000 / ip_ratio=1.40 / aq=1:1.00
      Encoded date : UTC 2010-02-15 02:21:44
      Tagged date : UTC 2010-02-15 22:58:52
   Audio #2
      ID : 2
      Format : AAC
      Format/Info : Advanced Audio Codec
      Format version : Version 4
      Format profile : LC
      Format settings, SBR : No
      Codec ID : 40
      Duration : 1h 55mn
      Bit rate mode : Variable
      Bit rate : 302 Kbps
      Maximum bit rate : 385 Kbps
      Channel(s) : 6 channels
      Channel positions : Front: L C R, Rear: L R, LFE
      Sampling rate : 48.0 KHz
      Resolution : 16 bits
      Stream size : 249 MiB (13%)
      Encoded date : UTC 2010-02-15 22:58:06
      Tagged date : UTC 2010-02-15 22:58:52
	Sample : YES
	Subtitle : English,Romanian

PLOT
James Bond willingly falls into an assassination ploy involving a naive Russian beauty in order to retrieve a Soviet encryption device that was stolen by SPECTRE.
Director: Terence Young
CASTING 
     
	Sean Connery	... 	James Bond
	Daniela Bianchi	... 	Tatiana Romanova
	Pedro Armendáriz	... 	Ali Kerim Bey (as Pedro Armendariz)
	Lotte Lenya	... 	Rosa Klebb
	Robert Shaw	... 	Red Grant
	Bernard Lee	... 	M
	Eunice Gayson	... 	Sylvia Trench
	Walter Gotell	... 	Morzeny
	Francis De Wolff	... 	Vavra - Gypsy Leader (as Francis de Wolff)
	George Pastell	... 	Train Conductor
	Nadja Regin	... 	Kerim's Girl
	Lois Maxwell	... 	Miss Moneypenny
	Aliza Gur	... 	Vida
	Martine Beswick	... 	Zora (also as Martin Beswick)
	Vladek Sheybal	... 	Kronsteen

SOURCE: From.Russia.With.Love.1963.720p.BluRay.x264-HANGOVER.mkv

----------

   General
      Complete name : Goldfinger.1964.BRRip.H264.AAC.5.1ch.Gopo.mp4
      Format : MPEG-4
      Format profile : Base Media
      Codec ID : isom
      File size : 1.80 GiB
      Duration : 1h 50mn
      Overall bit rate : 2 347 Kbps
      Encoded date : UTC 2010-02-11 23:36:27
      Tagged date : UTC 2010-02-11 23:36:27
   Video #1
      ID : 1
      Format : AVC
      Format/Info : Advanced Video Codec
      Format profile : High@L4.1
      Format settings, CABAC : Yes
      Format settings, ReFrames : 5 frames
      Codec ID : avc1
      Codec ID/Info : Advanced Video Coding
      Duration : 1h 50mn
      Bit rate mode : Variable
      Bit rate : 2 042 Kbps
      Maximum bit rate : 8 439 Kbps
      Width : 1 200 pixels
      Height : 720 pixels
      Display aspect ratio : 1.667
      Frame rate mode : Constant
      Frame rate : 23.976 fps
      Resolution : 24 bits
      Colorimetry : 4:2:0
      Scan type : Progressive
      Bits/(Pixel*Frame) : 0.099
      Stream size : 1.57 GiB (87%)
      Writing library : x264 core 84 r1416 fcf70c2
      Encoding settings : cabac=1 / ref=5 / deblock=1:0:0 / analyse=0x3:0x113 / me=hex / subme=7 / psy=1 / psy_rd=1.0:0.0 / mixed_ref=1 / me_range=16 / chroma_me=1 / trellis=0 / 8x8dct=1 / cqm=0 / deadzone=21,11 / fast_pskip=1 / chroma_qp_offset=-2 / threads=3 / sliced_threads=0 / nr=0 / decimate=1 / mbaff=0 / constrained_intra=0 / bframes=3 / b_pyramid=0 / b_adapt=1 / b_bias=0 / direct=1 / wpredb=1 / wpredp=2 / keyint=250 / keyint_min=25 / scenecut=40 / intra_refresh=0 / rc_lookahead=40 / rc=2pass / mbtree=1 / bitrate=2042 / ratetol=1.0 / qcomp=0.60 / qpmin=10 / qpmax=51 / qpstep=4 / cplxblur=20.0 / qblur=0.5 / vbv_maxrate=31250 / vbv_bufsize=31250 / ip_ratio=1.40 / aq=1:1.00
      Encoded date : UTC 2010-02-11 13:29:54
      Tagged date : UTC 2010-02-11 23:41:45
   Audio #2
      ID : 2
      Format : AAC
      Format/Info : Advanced Audio Codec
      Format version : Version 4
      Format profile : LC
      Format settings, SBR : No
      Codec ID : 40
      Duration : 1h 50mn
      Bit rate mode : Variable
      Bit rate : 302 Kbps
      Maximum bit rate : 391 Kbps
      Channel(s) : 6 channels
      Channel positions : Front: L C R, Rear: L R, LFE
      Sampling rate : 48.0 KHz
      Resolution : 16 bits
      Stream size : 238 MiB (13%)
      Encoded date : UTC 2010-02-11 23:40:55
      Tagged date : UTC 2010-02-11 23:41:45
	Sample : YES
	Subtitle : English,Romanian

PLOT
Investigating a gold magnate's smuggling, James Bond uncovers a plot to contaminate the Fort Knox gold reserve.
Director: Guy Hamilton
CASTING 
     
	Sean Connery	... 	James Bond
	Honor Blackman	... 	Pussy Galore
	Gert Fröbe	... 	Auric Goldfinger (as Gert Frobe)
	Shirley Eaton	... 	Jill Masterson
	Tania Mallet	... 	Tilly Masterson
	Harold Sakata	... 	Oddjob (as Harold Sakata 'Tosh Togo')
	Bernard Lee	... 	M
	Martin Benson	... 	Solo
	Cec Linder	... 	Felix Leiter
	Austin Willis	... 	Simmons
	Lois Maxwell	... 	Miss Moneypenny
	Bill Nagy	... 	Midnight
	Michael Mellinger	... 	Kisch
	Peter Cranwell	... 	Johnny
	Nadja Regin	... 	Bonita

SOURCE: Goldfinger.1964.BluRay.720p.DTS.x264-SiNNERS.mkv

----------

   General
      Complete name : Thunderball.1965.BRRip.H264.AAC.5.1ch.Gopo.mp4
      Format : MPEG-4
      Format profile : Base Media
      Codec ID : isom
      File size : 2.24 GiB
      Duration : 2h 10mn
      Overall bit rate : 2 462 Kbps
      Encoded date : UTC 2010-02-16 17:11:18
      Tagged date : UTC 2010-02-16 17:11:18
   Video #1
      ID : 1
      Format : AVC
      Format/Info : Advanced Video Codec
      Format profile : High@L4.1
      Format settings, CABAC : Yes
      Format settings, ReFrames : 6 frames
      Codec ID : avc1
      Codec ID/Info : Advanced Video Coding
      Duration : 2h 10mn
      Bit rate mode : Variable
      Bit rate : 2 153 Kbps
      Maximum bit rate : 12.0 Mbps
      Width : 1 280 pixels
      Height : 544 pixels
      Display aspect ratio : 2.35:1
      Frame rate mode : Constant
      Frame rate : 23.976 fps
      Resolution : 24 bits
      Colorimetry : 4:2:0
      Scan type : Progressive
      Bits/(Pixel*Frame) : 0.129
      Stream size : 1.96 GiB (87%)
      Writing library : x264 core 84 r1416 fcf70c2
      Encoding settings : cabac=1 / ref=6 / deblock=1:-3:-1 / analyse=0x3:0x133 / me=umh / subme=7 / psy=1 / psy_rd=1.0:0.1 / mixed_ref=1 / me_range=32 / chroma_me=1 / trellis=2 / 8x8dct=1 / cqm=0 / deadzone=21,11 / fast_pskip=0 / chroma_qp_offset=-3 / threads=2 / sliced_threads=0 / nr=0 / decimate=1 / mbaff=0 / constrained_intra=0 / bframes=6 / b_pyramid=2 / b_adapt=2 / b_bias=0 / direct=1 / wpredb=1 / wpredp=2 / keyint=250 / keyint_min=25 / scenecut=40 / intra_refresh=0 / rc_lookahead=40 / rc=2pass / mbtree=1 / bitrate=2153 / ratetol=1.0 / qcomp=0.60 / qpmin=10 / qpmax=51 / qpstep=4 / cplxblur=20.0 / qblur=0.5 / vbv_maxrate=40000 / vbv_bufsize=40000 / ip_ratio=1.40 / aq=1:1.00
      Encoded date : UTC 2010-02-15 09:53:23
      Tagged date : UTC 2010-02-16 17:19:02
   Audio #2
      ID : 2
      Format : AAC
      Format/Info : Advanced Audio Codec
      Format version : Version 4
      Format profile : LC
      Format settings, SBR : No
      Codec ID : 40
      Duration : 2h 10mn
      Bit rate mode : Variable
      Bit rate : 305 Kbps
      Maximum bit rate : 436 Kbps
      Channel(s) : 6 channels
      Channel positions : Front: L C R, Rear: L R, LFE
      Sampling rate : 48.0 KHz
      Resolution : 16 bits
      Stream size : 284 MiB (12%)
      Encoded date : UTC 2010-02-16 17:17:53
      Tagged date : UTC 2010-02-16 17:19:02
	Sample : YES
	Subtitle : English,Romanian

PLOT
James Bond heads to The Bahamas to recover two nuclear warheads stolen by SPECTRE agent Emilio Largo in an international extortion scheme.
Director: Terence Young
CASTING 
     
	Sean Connery	... 	James Bond
	Claudine Auger	... 	Domino Derval
	Adolfo Celi	... 	Emilio Largo
	Luciana Paluzzi	... 	Fiona Volpe
	Rik Van Nutter	... 	Felix Leiter
	Guy Doleman	... 	Count Lippe
	Molly Peters	... 	Patricia Fearing
	Martine Beswick	... 	Paula Caplan
	Bernard Lee	... 	M
	Desmond Llewelyn	... 	Q
	Lois Maxwell	... 	Miss Moneypenny
	Roland Culver	... 	Foreign Secretary
	Earl Cameron	... 	Pinder
	Paul Stassino	... 	Palazzi
	Rose Alba	... 	Madame Boitier

SOURCE: Thunderball.1965.720p.BluRay.x264.HANGOVER.mkv

----------

   General
      Complete name : You.Only.Live.Twice.1967.HDTVRip.H264.AAC.5.1ch.Gopo.mp4
      Format : MPEG-4
      Format profile : Base Media
      Codec ID : isom
      File size : 1.80 GiB
      Duration : 1h 56mn
      Overall bit rate : 2 209 Kbps
      Encoded date : UTC 2010-02-14 14:12:52
      Tagged date : UTC 2010-02-14 14:12:52
   Video #1
      ID : 1
      Format : AVC
      Format/Info : Advanced Video Codec
      Format profile : High@L4.1
      Format settings, CABAC : Yes
      Format settings, ReFrames : 6 frames
      Codec ID : avc1
      Codec ID/Info : Advanced Video Coding
      Duration : 1h 56mn
      Bit rate mode : Variable
      Bit rate : 1 904 Kbps
      Maximum bit rate : 14.7 Mbps
      Width : 1 280 pixels
      Height : 544 pixels
      Display aspect ratio : 2.35:1
      Frame rate mode : Constant
      Frame rate : 23.976 fps
      Resolution : 24 bits
      Colorimetry : 4:2:0
      Scan type : Progressive
      Bits/(Pixel*Frame) : 0.114
      Stream size : 1.55 GiB (86%)
      Writing library : x264 core 84 r1416 fcf70c2
      Encoding settings : cabac=1 / ref=6 / deblock=1:-3:-1 / analyse=0x3:0x133 / me=umh / subme=7 / psy=1 / psy_rd=1.0:0.1 / mixed_ref=1 / me_range=32 / chroma_me=1 / trellis=2 / 8x8dct=1 / cqm=0 / deadzone=21,11 / fast_pskip=0 / chroma_qp_offset=-3 / threads=2 / sliced_threads=0 / nr=0 / decimate=1 / mbaff=0 / constrained_intra=0 / bframes=6 / b_pyramid=2 / b_adapt=2 / b_bias=0 / direct=1 / wpredb=1 / wpredp=2 / keyint=250 / keyint_min=25 / scenecut=40 / intra_refresh=0 / rc_lookahead=40 / rc=2pass / mbtree=1 / bitrate=1904 / ratetol=1.0 / qcomp=0.60 / qpmin=10 / qpmax=51 / qpstep=4 / cplxblur=20.0 / qblur=0.5 / vbv_maxrate=40000 / vbv_bufsize=40000 / ip_ratio=1.40 / aq=1:1.00 / cabac=1 / ref=6 / deblock=1:-3:-1 / analyse=0x3:0x133 / me=umh / subme=7 / psy=1 / psy_rd=1.0:0.1 / mixed_ref=1 / me_range=32 / chroma_me=1 / trellis=2 / 8x8dct=1 / cqm=0 / deadzone=21,11 / fast_pskip=0 / chroma_qp_offset=-3 / threads=2 / sliced_threads=0 / nr=0 / decimate=1 / mbaff=0 / constrained_intra=0 / bframes=6 / b_pyramid=2 / b_adapt=2 / b_bias=0 / direct=1 / wpredb=1 / wpredp=2 / keyint=250 / keyint_min=25 / scenecut=40 / intra_refresh=0 / rc_lookahead=40 / rc=2pass / mbtree=1 / bitrate=1904 / ratetol=1.0 / qcomp=0.60 / qpmin=10 / qpmax=51 / qpstep=4 / cplxblur=20.0 / qblur=0.5 / vbv_maxrate=40000 / vbv_bufsize=40000 / ip_ratio=1.40 / aq=1:1.00
      Encoded date : UTC 2010-02-13 17:49:15
      Tagged date : UTC 2010-02-14 14:16:07
   Audio #2
      ID : 2
      Format : AAC
      Format/Info : Advanced Audio Codec
      Format version : Version 4
      Format profile : LC
      Format settings, SBR : No
      Codec ID : 40
      Duration : 1h 56mn
      Bit rate mode : Variable
      Bit rate : 301 Kbps
      Maximum bit rate : 381 Kbps
      Channel(s) : 6 channels
      Channel positions : Front: L C R, Rear: L R, LFE
      Sampling rate : 48.0 KHz
      Resolution : 16 bits
      Stream size : 252 MiB (14%)
      Encoded date : UTC 2010-02-14 14:15:17
      Tagged date : UTC 2010-02-14 14:16:07
	Sample : YES
	Subtitle : English,Romanian

PLOT

Agent 007 and the Japanese secret service ninja force must find and stop the true culprit of a series of spacejackings before nuclear war is provoked.
Director: Lewis Gilbert
CASTING 
     
	Sean Connery	... 	James Bond
	Akiko Wakabayashi	... 	Aki
	Mie Hama	... 	Kissy Suzuki
	Tetsurô Tanba	... 	Tiger Tanaka (as Tetsuro Tanba)
	Teru Shimada	... 	Mr. Osato
	Karin Dor	... 	Helga Brandt
	Donald Pleasence	... 	Ernst Stavro Blofeld
	Bernard Lee	... 	M
	Lois Maxwell	... 	Miss Moneypenny
	Desmond Llewelyn	... 	Q
	Charles Gray	... 	Dikko Henderson
	Tsai Chin	... 	Ling, Chinese Girl in Hong Kong
	Peter Fanene Maivia	... 	Car Driver
	Burt Kwouk	... 	Spectre 3
	Michael Chow	... 	Spectre 4

SOURCE: You.Only.Live.Twice.1967.720p.hdtv.x264-nbs.mkv

----------

   General
      Complete name : Diamonds.are.Forever.1971.HDTVRip.H264.AAC.5.1ch.Gopo.mp4
      Format : MPEG-4
      Format profile : Base Media
      Codec ID : isom
      File size : 1.80 GiB
      Duration : 2h 0mn
      Overall bit rate : 2 151 Kbps
      Encoded date : UTC 2010-02-18 10:57:40
      Tagged date : UTC 2010-02-18 10:57:40
   Video #1
      ID : 1
      Format : AVC
      Format/Info : Advanced Video Codec
      Format profile : High@L4.1
      Format settings, CABAC : Yes
      Format settings, ReFrames : 6 frames
      Codec ID : avc1
      Codec ID/Info : Advanced Video Coding
      Duration : 2h 0mn
      Bit rate mode : Variable
      Bit rate : 1 846 Kbps
      Maximum bit rate : 9 188 Kbps
      Width : 1 278 pixels
      Height : 542 pixels
      Display aspect ratio : 2.35:1
      Frame rate mode : Constant
      Frame rate : 23.976 fps
      Resolution : 24 bits
      Colorimetry : 4:2:0
      Scan type : Progressive
      Bits/(Pixel*Frame) : 0.111
      Stream size : 1.55 GiB (86%)
      Writing library : x264 core 84 r1416 fcf70c2
      Encoding settings : cabac=1 / ref=6 / deblock=1:-3:-1 / analyse=0x3:0x133 / me=umh / subme=7 / psy=1 / psy_rd=1.0:0.1 / mixed_ref=1 / me_range=32 / chroma_me=1 / trellis=2 / 8x8dct=1 / cqm=0 / deadzone=21,11 / fast_pskip=0 / chroma_qp_offset=-3 / threads=2 / sliced_threads=0 / nr=0 / decimate=1 / mbaff=0 / constrained_intra=0 / bframes=6 / b_pyramid=2 / b_adapt=2 / b_bias=0 / direct=1 / wpredb=1 / wpredp=2 / keyint=250 / keyint_min=25 / scenecut=40 / intra_refresh=0 / rc_lookahead=40 / rc=2pass / mbtree=1 / bitrate=1846 / ratetol=1.0 / qcomp=0.60 / qpmin=10 / qpmax=51 / qpstep=4 / cplxblur=20.0 / qblur=0.5 / vbv_maxrate=40000 / vbv_bufsize=40000 / ip_ratio=1.40 / aq=1:1.00 / cabac=1 / ref=6 / deblock=1:-3:-1 / analyse=0x3:0x133 / me=umh / subme=7 / psy=1 / psy_rd=1.0:0.1 / mixed_ref=1 / me_range=32 / chroma_me=1 / trellis=2 / 8x8dct=1 / cqm=0 / deadzone=21,11 / fast_pskip=0 / chroma_qp_offset=-3 / threads=2 / sliced_threads=0 / nr=0 / decimate=1 / mbaff=0 / constrained_intra=0 / bframes=6 / b_pyramid=2 / b_adapt=2 / b_bias=0 / direct=1 / wpredb=1 / wpredp=2 / keyint=250 / keyint_min=25 / scenecut=40 / intra_refresh=0 / rc_lookahead=40 / rc=2pass / mbtree=1 / bitrate=1846 / ratetol=1.0 / qcomp=0.60 / qpmin=10 / qpmax=51 / qpstep=4 / cplxblur=20.0 / qblur=0.5 / vbv_maxrate=40000 / vbv_bufsize=40000 / ip_ratio=1.40 / aq=1:1.00
      Encoded date : UTC 2010-02-17 16:27:26
      Tagged date : UTC 2010-02-18 11:02:17
   Audio #2
      ID : 2
      Format : AAC
      Format/Info : Advanced Audio Codec
      Format version : Version 4
      Format profile : LC
      Format settings, SBR : No
      Codec ID : 40
      Duration : 2h 0mn
      Bit rate mode : Variable
      Bit rate : 301 Kbps
      Maximum bit rate : 374 Kbps
      Channel(s) : 6 channels
      Channel positions : Front: L C R, Rear: L R, LFE
      Sampling rate : 48.0 KHz
      Resolution : 16 bits
      Stream size : 258 MiB (14%)
      Encoded date : UTC 2010-02-18 11:01:05
      Tagged date : UTC 2010-02-18 11:02:17
	Sample : YES
	Subtitle : English,Romanian

PLOT
A diamond smuggling investigation leads James Bond to Las Vegas, where he uncovers an extortion plot headed by his nemesis, Ernst Stavro Blofeld.
Director: Guy Hamilton
CASTING 
     
	Sean Connery	... 	James Bond
	Jill St. John	... 	Tiffany Case
	Charles Gray	... 	Ernst Stavro Blofeld
	Lana Wood	... 	Plenty O'Toole
	Jimmy Dean	... 	Willard Whyte
	Bruce Cabot	... 	Bert Saxby
	Putter Smith	... 	Mr. Kidd
	Bruce Glover	... 	Mr. Wint
	Norman Burton	... 	Felix Leiter
	Joseph Fürst	... 	Dr. Metz (as Joseph Furst)
	Bernard Lee	... 	M
	Desmond Llewelyn	... 	Q
	Leonard Barr	... 	Shady Tree
	Lois Maxwell	... 	Miss Moneypenny
	Margaret Lacey	... 	Mrs. Whistler

SOURCE: Diamonds.are.Forever.1971.720p.hdtv.x264-nbs.mkv

----------

   General
      Complete name : Never.Say.Never.Again.1983.BRRip.H264.AAC.5.1ch.Gopo.mp4
      Format : MPEG-4
      Format profile : Base Media
      Codec ID : isom
      File size : 2.25 GiB
      Duration : 2h 14mn
      Overall bit rate : 2 407 Kbps
      Encoded date : UTC 2010-02-17 01:23:50
      Tagged date : UTC 2010-02-17 01:23:50
   Video #1
      ID : 1
      Format : AVC
      Format/Info : Advanced Video Codec
      Format profile : High@L4.1
      Format settings, CABAC : Yes
      Format settings, ReFrames : 6 frames
      Codec ID : avc1
      Codec ID/Info : Advanced Video Coding
      Duration : 2h 14mn
      Bit rate mode : Variable
      Bit rate : 2 101 Kbps
      Maximum bit rate : 13.0 Mbps
      Width : 1 280 pixels
      Height : 544 pixels
      Display aspect ratio : 2.35:1
      Frame rate mode : Constant
      Frame rate : 23.976 fps
      Resolution : 24 bits
      Colorimetry : 4:2:0
      Scan type : Progressive
      Bits/(Pixel*Frame) : 0.126
      Stream size : 1.97 GiB (87%)
      Writing library : x264 core 84 r1416 fcf70c2
      Encoding settings : cabac=1 / ref=6 / deblock=1:-3:-1 / analyse=0x3:0x133 / me=umh / subme=7 / psy=1 / psy_rd=1.0:0.1 / mixed_ref=1 / me_range=32 / chroma_me=1 / trellis=2 / 8x8dct=1 / cqm=0 / deadzone=21,11 / fast_pskip=0 / chroma_qp_offset=-3 / threads=2 / sliced_threads=0 / nr=0 / decimate=1 / mbaff=0 / constrained_intra=0 / bframes=6 / b_pyramid=2 / b_adapt=2 / b_bias=0 / direct=1 / wpredb=1 / wpredp=2 / keyint=250 / keyint_min=25 / scenecut=40 / intra_refresh=0 / rc_lookahead=40 / rc=2pass / mbtree=1 / bitrate=2101 / ratetol=1.0 / qcomp=0.60 / qpmin=10 / qpmax=51 / qpstep=4 / cplxblur=20.0 / qblur=0.5 / vbv_maxrate=40000 / vbv_bufsize=40000 / ip_ratio=1.40 / aq=1:1.00
      Encoded date : UTC 2010-02-16 04:49:18
      Tagged date : UTC 2010-02-17 01:28:34
   Audio #2
      ID : 2
      Format : AAC
      Format/Info : Advanced Audio Codec
      Format version : Version 4
      Format profile : LC
      Format settings, SBR : No
      Codec ID : 40
      Duration : 2h 14mn
      Bit rate mode : Variable
      Bit rate : 303 Kbps
      Maximum bit rate : 356 Kbps
      Channel(s) : 6 channels
      Channel positions : Front: L C R, Rear: L R, LFE
      Sampling rate : 48.0 KHz
      Resolution : 16 bits
      Stream size : 290 MiB (13%)
      Encoded date : UTC 2010-02-17 01:27:42
      Tagged date : UTC 2010-02-17 01:28:34
	Sample : YES
	Subtitle : English,Romanian

PLOT
A SPECTRE agent has stolen two American nuclear warheads, and James Bond must find their targets before they are detonated.
Director: Irvin Kershner
CASTING 
     
	Sean Connery	... 	James Bond
	Jill St. John	... 	Tiffany Case
	Charles Gray	... 	Ernst Stavro Blofeld
	Lana Wood	... 	Plenty O'Toole
	Jimmy Dean	... 	Willard Whyte
	Bruce Cabot	... 	Bert Saxby
	Putter Smith	... 	Mr. Kidd
	Bruce Glover	... 	Mr. Wint
	Norman Burton	... 	Felix Leiter
	Joseph Fürst	... 	Dr. Metz (as Joseph Furst)
	Bernard Lee	... 	M
	Desmond Llewelyn	... 	Q
	Leonard Barr	... 	Shady Tree
	Lois Maxwell	... 	Miss Moneypenny
	Margaret Lacey	... 	Mrs. Whistler

SOURCE: Never.Say.Never.Again.1983 .BluRay.720p. DTS.x264-SiNNERS.mkv

Notes: For best performance I suggest you to use KMPlayer(find it with google) for playback
These movies were made especially for PC and they don't play on a PS3.If you want to re-encode for PS3 or test for other devices be my guests.